<?xml version="1.0" standalone="no"?>
<!DOCTYPE svg PUBLIC "-//W3C//DTD SVG 20010904//EN"
 "http://www.w3.org/TR/2001/REC-SVG-20010904/DTD/svg10.dtd">
<svg version="1.0" xmlns="http://www.w3.org/2000/svg"
 width="216.000000pt" height="190.000000pt" viewBox="0 0 216.000000 190.000000"
 preserveAspectRatio="xMidYMid meet">

<g transform="translate(0.000000,190.000000) scale(0.100000,-0.100000)"
fill="#000000" stroke="none">
<path d="M670 1430 c0 -358 2 -410 15 -410 8 0 15 -4 15 -10 0 -6 65 -10 175
-10 l175 0 0 143 c0 98 -4 147 -12 155 -7 7 -39 12 -75 12 l-63 0 0 -126 0
-125 -37 3 -38 3 -3 163 -2 162 115 0 c120 0 130 4 101 43 -11 14 -30 17 -115
17 l-101 0 0 165 0 165 40 0 40 0 0 -111 c0 -132 4 -138 93 -139 l57 0 0 138
c-1 98 -4 142 -14 155 -12 15 -33 17 -190 17 l-176 0 0 -410z"/>
<path d="M485 1800 c-184 -48 -335 -157 -435 -312 l-40 -61 27 -51 c15 -28 68
-92 118 -142 79 -79 105 -98 186 -137 105 -50 204 -78 276 -76 43 1 39 3 -36
15 -103 17 -205 52 -279 96 -72 42 -220 189 -252 250 l-24 47 48 70 c125 183
302 283 561 314 17 2 5 4 -25 5 -30 0 -86 -7 -125 -18z"/>
<path d="M602 1739 c-23 -4 -65 -20 -93 -35 -179 -98 -219 -342 -81 -495 53
-59 147 -109 202 -108 30 1 27 3 -23 15 -31 7 -70 20 -85 28 -41 21 -110 94
-134 140 -30 58 -36 177 -13 247 33 99 160 199 251 199 13 0 26 5 29 10 7 11
7 11 -53 -1z"/>
<path d="M585 1593 c-48 -25 -73 -53 -91 -99 -22 -57 -15 -132 17 -179 22 -33
106 -85 136 -85 10 0 13 40 13 190 l0 190 -22 0 c-13 -1 -36 -8 -53 -17z"/>
<path d="M1200 1294 c0 -217 3 -268 14 -280 11 -10 41 -14 110 -14 l96 0 0
-150 0 -150 -40 0 -40 0 0 93 c0 138 0 137 -76 137 l-64 0 0 -133 c0 -90 4
-137 12 -145 8 -8 64 -12 185 -12 l173 0 0 444 c0 244 -3 451 -6 460 -5 12
-21 16 -75 16 l-69 0 0 -251 0 -250 -37 3 -38 3 -5 245 c-3 135 -7 246 -8 248
-1 1 -31 2 -67 2 l-65 0 0 -266z"/>
<path d="M1720 1290 c0 -233 2 -270 15 -270 8 0 15 -4 15 -10 0 -6 63 -10 170
-10 l170 0 0 43 c0 82 -4 87 -76 87 l-63 0 -3 -32 c-3 -31 -5 -33 -43 -33
l-40 0 0 70 0 70 113 3 112 3 0 159 c0 87 -3 165 -6 174 -5 14 -31 16 -185 16
l-179 0 0 -270z m230 94 l0 -115 -42 3 -43 3 -3 113 -3 112 46 0 45 0 0 -116z"/>
<path d="M130 480 l0 -420 185 0 185 0 0 185 0 185 -65 0 -65 0 -2 -162 -3
-163 -47 -3 -48 -3 0 381 0 381 48 -3 47 -3 3 -162 2 -163 65 0 65 0 0 185 0
185 -185 0 -185 0 0 -420z"/>
<path d="M670 565 l0 -55 64 0 65 0 3 33 c3 31 5 32 51 35 l47 3 0 -85 0 -86
-115 0 -115 0 0 -175 0 -175 185 0 185 0 0 280 0 280 -185 0 -185 0 0 -55z
m230 -331 l0 -135 -47 3 -48 3 -3 119 c-1 66 0 126 2 133 3 8 23 13 51 13 l45
0 0 -136z"/>
<path d="M1210 340 l0 -280 65 0 65 0 0 260 0 260 50 0 50 0 0 -60 0 -60 70 0
70 0 0 80 0 80 -185 0 -185 0 0 -280z"/>
<path d="M1740 340 l0 -280 185 0 185 0 0 55 0 55 -64 0 -65 0 -3 -32 c-3 -32
-5 -33 -50 -36 l-48 -3 0 85 0 86 115 0 115 0 0 175 0 175 -185 0 -185 0 0
-280z m238 108 l3 -128 -51 0 -50 0 0 131 0 130 48 -3 47 -3 3 -127z"/>
</g>
</svg>
